<svg width="1185" height="248" viewBox="0 0 1185 248" fill="none" xmlns="http://www.w3.org/2000/svg">
<path d="M1109 106.9C1097.95 106.9 1089 115.855 1089 126.9C1089 137.946 1097.95 146.9 1109 146.9C1120.05 146.9 1129 137.946 1129 126.9C1129 115.855 1120.05 106.9 1109 106.9Z" fill="#343434"/>
<path d="M315 35.9004C308.925 35.9004 304 40.8253 304 46.9004C304 52.9755 308.925 57.9004 315 57.9004C321.075 57.9004 326 52.9755 326 46.9004C326 40.8253 321.075 35.9004 315 35.9004Z" fill="#343434"/>
<path d="M370.5 57.9004C356.969 57.9004 346 68.8694 346 82.4004C346 95.9314 356.969 106.9 370.5 106.9C384.031 106.9 395 95.9314 395 82.4004C395 68.8694 384.031 57.9004 370.5 57.9004Z" fill="#343434"/>
<path d="M1185 248V230.3C1162.3 215.5 1132 198.4 1094.3 178.8C943.5 100.8 772.3 62.2 669.5 109.5C566.6 156.9 531.5 178.8 458.7 178.8C385.9 178.8 340.4 130.2 239.2 140.5C138 150.8 162.9 199.8 50.5 199.8C31.6 199.8 15 197.2 0 193V248H1185Z" fill="#343434"/>
</svg>
