<svg width="1185" height="248" viewBox="0 0 1185 248" fill="none" xmlns="http://www.w3.org/2000/svg">
<path d="M1134.5 48.2C1022.1 48.2 1047 97.2 945.8 107.5C844.6 117.8 799.1 69.2 726.3 69.2C653.5 69.2 618.4 91.1 515.5 138.5C412.7 185.8 241.5 147.2 90.7 69.2C53 49.7 22.7 32.5 0 17.7V248H1185V55C1170 50.8 1153.4 48.2 1134.5 48.2ZM76 141.1C65 141.1 56 132.1 56 121.1C56 110.1 65 101.1 76 101.1C87 101.1 96 110.1 96 121.1C96 132.1 87 141.1 76 141.1ZM814.5 190.1C801 190.1 790 179.1 790 165.6C790 152.1 801 141.1 814.5 141.1C828 141.1 839 152.1 839 165.6C839 179.1 828 190.1 814.5 190.1ZM870 212.1C863.9 212.1 859 207.2 859 201.1C859 195 863.9 190.1 870 190.1C876.1 190.1 881 195 881 201.1C881 207.2 876.1 212.1 870 212.1Z" fill="#343434"/>
</svg>
