<svg width="1185" height="248" viewBox="0 0 1185 248" class="section-a" fill="none" xmlns="http://www.w3.org/2000/svg">
<path d="M76 141.1C87.0457 141.1 96 132.145 96 121.1C96 110.054 87.0457 101.1 76 101.1C64.9543 101.1 56 110.054 56 121.1C56 132.145 64.9543 141.1 76 141.1Z" class="bubble-next" fill="#2B59C3"/>
<path d="M870 212.1C876.075 212.1 881 207.175 881 201.1C881 195.024 876.075 190.1 870 190.1C863.925 190.1 859 195.024 859 201.1C859 207.175 863.925 212.1 870 212.1Z" class="bubble-next" fill="#2B59C3"/>
<path d="M814.5 190.1C828.031 190.1 839 179.131 839 165.6C839 152.069 828.031 141.1 814.5 141.1C800.969 141.1 790 152.069 790 165.6C790 179.131 800.969 190.1 814.5 190.1Z" class="bubble-next" fill="#2B59C3"/>
<path d="M0 0V17.7C22.7 32.5 53 49.6 90.7 69.2C241.5 147.2 412.7 185.8 515.5 138.5C618.4 91.1 653.5 69.2 726.3 69.2C799.1 69.2 844.6 117.8 945.8 107.5C1047 97.2 1022.1 48.2 1134.5 48.2C1153.4 48.2 1170 50.8 1185 55V0H0Z" fill="#343434"/>
</svg>
