<svg width="1185" height="248" viewBox="0 0 1185 248" class="section-b" fill="none" xmlns="http://www.w3.org/2000/svg">
<path d="M50.5 199.8C162.9 199.8 138 150.8 239.2 140.5C340.4 130.2 385.9 178.8 458.7 178.8C531.5 178.8 566.6 156.9 669.5 109.5C772.3 62.2 943.5 100.8 1094.3 178.8C1132 198.3 1162.3 215.5 1185 230.3V0H0V193C15 197.2 31.6 199.8 50.5 199.8ZM1109 106.9C1120 106.9 1129 115.9 1129 126.9C1129 137.9 1120 146.9 1109 146.9C1098 146.9 1089 137.9 1089 126.9C1089 115.9 1098 106.9 1109 106.9ZM370.5 57.9C384 57.9 395 68.9 395 82.4C395 95.9 384 106.9 370.5 106.9C357 106.9 346 95.9 346 82.4C346 68.9 357 57.9 370.5 57.9ZM315 35.9C321.1 35.9 326 40.8 326 46.9C326 53 321.1 57.9 315 57.9C308.9 57.9 304 53 304 46.9C304 40.8 308.9 35.9 315 35.9Z" class="bubble-prev" />
</svg>
